<svg id="Group_6" data-name="Group 6" xmlns="http://www.w3.org/2000/svg" width="238.149" height="229.405" viewBox="0 0 238.149 229.405">
  <path id="Path_14" data-name="Path 14" d="M91.727,100.615c-1.6,0-2.883-.052-4.159.014s-1.824-.444-1.807-1.778c.04-3,.013-5.993.013-9.356,2.718,0,5.076-.078,7.426.029,1.476.066,2.263-.4,2.541-1.968a39.641,39.641,0,0,1,1.13-4.034,2.323,2.323,0,0,0-.549-.259c-4.369-.4-4.369-.4-4.369-5.072V71.913c2.248,0,4.3-.1,6.337.032,1.593.106,2.4-.411,2.671-2.091a37.5,37.5,0,0,1,1.206-4.226H6.5c1.622-3.676,2.838-6.881,4.408-9.888,2.324-4.45,4.953-8.731,7.345-13.146a4.657,4.657,0,0,1,4.681-2.619c23.213.067,46.425.041,69.638.041q59.261,0,118.522-.043c2.231,0,3.831.542,4.909,2.63,3.523,6.826,7.108,13.62,10.635,20.445a15.564,15.564,0,0,1,.753,2.514H132.413a4.119,4.119,0,0,0-.036.939c1.773,6.557.983,5.3,6.572,5.4,3.378.06,3.38,0,3.38,3.426,0,1.822-.113,3.654.03,5.463.148,1.861-.441,2.678-2.3,2.437a23.95,23.95,0,0,0-2.674-.016,52.908,52.908,0,0,0,1.607,5.334c.2.492,1.177.866,1.821.9a45.925,45.925,0,0,0,5.76.014c1.575-.1,2,.56,1.94,2.071-.085,2.213-.087,4.439.047,6.65.112,1.856-.492,2.651-2.35,2.434a35.626,35.626,0,0,0-3.689-.022c.611,2.119,1.07,3.976,1.726,5.756.137.372.995.626,1.533.648,1.917.078,3.844.095,5.762.012,1.31-.057,1.788.477,1.764,1.79-.044,2.456-.028,4.912.013,7.367.023,1.383-.424,2.058-1.9,1.884a34.572,34.572,0,0,0-3.747-.026,47.929,47.929,0,0,0,1.652,5.448,2.624,2.624,0,0,0,1.99,1.094c2.444.132,4.9.05,7.734.05,0,3.386.047,6.673-.065,9.954-.011.359-.9.93-1.425.981-1.425.137-2.868.047-4.652.047a48.312,48.312,0,0,0,1.687,5.48,2.587,2.587,0,0,0,2,1.013c3.128.108,6.262.047,9.663.047v10.9h-8.163a43.98,43.98,0,0,0,1.834,5.852c.256.552,1.586.777,2.433.8,3.285.089,6.575.036,10.2.036,0,3.365.069,6.514-.077,9.651-.021.467-1.045,1.225-1.638,1.261-2.368.146-4.75.061-7.5.061a38.858,38.858,0,0,0,1.643,5.24,2.875,2.875,0,0,0,2.193,1.133c3.069.127,6.148.1,9.221.034,1.6-.035,2.131.546,2.036,2.247-.158,2.835-.043,5.686-.043,8.8h-9.474c-.109.416-.2.573-.176.7,1.321,5.844,1.323,5.843,7.894,5.847,2.946,0,2.947,0,2.947,3.065,0,1.98-.074,3.964.019,5.94.078,1.664-.471,2.322-2.141,2.076a28.018,28.018,0,0,0-3.709-.03l4.124,11.731c-3.542,0-6.8.067-10.045-.066-.529-.022-1.255-.838-1.494-1.45a72.476,72.476,0,0,1-2.711-7.787c-.534-2.018-1.655-2.6-3.49-2.54-3.223.108-6.448.172-9.672.175q-37.471.025-74.941.017c-4.093,0-4.055,0-5.21,4.182-.664,2.4-.822,5.615-2.4,6.891-1.5,1.212-4.555.385-6.927.438-.987.022-1.973,0-3.353,0,.963-3.907,1.856-7.526,2.845-11.537a20.767,20.767,0,0,1-4.1-.077,2.44,2.44,0,0,1-1.583-1.642,61.887,61.887,0,0,1-.006-7.832,2.166,2.166,0,0,1,1.485-1.445,37.153,37.153,0,0,1,5.746-.254c1.482.038,2.244-.4,2.458-2.038a29.08,29.08,0,0,1,1.2-4.213H56.016V177.142h8.236c4.84,0,4.842,0,6.225-4.783.126-.438.2-.893.36-1.648H62.031V159.542c3.215,0,6.415-.114,9.6.041,2.009.1,3.2-.4,3.43-2.66a23.829,23.829,0,0,1,1-3.65H68.143V142.14c2.84,0,5.666-.183,8.456.056,2.336.2,3.4-.723,3.768-2.976a36.133,36.133,0,0,1,.957-3.519h-5.99V124.563c2.271,0,4.41-.145,6.519.039,2.3.2,3.409-.774,3.754-3.043a28.615,28.615,0,0,1,.982-3.368l-5.556-.321c0-3.269-.058-6.489.074-9.7.016-.4,1.016-1.031,1.6-1.079a33.469,33.469,0,0,1,5.3-.022c1.554.12,2.238-.6,2.564-2.031s.738-2.822,1.162-4.421m67.814,93.834a21.93,21.93,0,0,1-.988-3.386c-.287-2.419-1.591-2.9-3.771-2.869-8.907.122-17.818.082-26.727.047-16.656-.064-33.312-.179-49.968-.2a2.308,2.308,0,0,0-1.726,1.184c-.666,1.618-1.062,3.354-1.618,5.225Zm-5.14-17.273c-.492-1.735-1.011-3.2-1.31-4.715a2.292,2.292,0,0,0-2.759-2.11c-2.677.157-5.36.292-8.041.3q-22.806.041-45.614.013c-4.377,0-8.755-.038-13.13.047-.7.014-1.808.4-2.022.925a50.8,50.8,0,0,0-1.63,5.545Zm-5.352-17.536c-.308-1.327-.62-2.37-.783-3.436-.368-2.4-1.487-3.233-4-3.2-12.981.163-25.963.071-38.945.078-5.53,0-11.061-.005-16.591.087a2.52,2.52,0,0,0-1.975.964,51.606,51.606,0,0,0-1.667,5.51ZM90.521,142.1h53.442a22.086,22.086,0,0,1-1.05-3.738c-.245-2.492-1.58-2.888-3.747-2.874-13.895.092-27.79.047-41.685.047-5.808,0-5.809,0-6.957,5.934a4.287,4.287,0,0,0,0,.632m48.236-17.561a29.162,29.162,0,0,0-1.417-4.784,3.256,3.256,0,0,0-2.243-1.708c-12.049-.108-24.1-.086-36.151-.041-.595,0-1.555.342-1.72.776-.679,1.8-1.117,3.689-1.7,5.757Zm-5.2-17.6a21.775,21.775,0,0,1-.885-3.129c-.338-2.75-1.779-3.553-4.4-3.484-6.67.174-13.348,0-20.021.074-6.392.071-5.236-1.217-7.306,5.707a4.578,4.578,0,0,0-.063.833ZM106.116,89.535H128.4a36.43,36.43,0,0,1-1.159-4.116c-.331-2.113-1.52-2.6-3.409-2.541-3.6.111-7.215.034-10.822.034-5.937,0-5.937,0-6.893,6.623m17.094-17.473c-.619-2.088-1.128-3.941-1.739-5.759a1.423,1.423,0,0,0-.964-.85c-2.283-.075-4.57-.065-6.854-.01a1.15,1.15,0,0,0-.835.66c-.592,1.9-1.105,3.823-1.707,5.959Z" transform="translate(1.924 11.825)" fill="#ffc631"/>
  <path id="Path_15" data-name="Path 15" d="M195.7,38.019c-12.024,0-24.049.114-36.071-.1-2.232-.041-4.575-1.14-6.639-2.222-16.41-8.6-33.732-11.568-51.96-9.671-11.658,1.213-22.473,5.036-32.9,10.417a15.1,15.1,0,0,1-6.521,1.53c-10.355.156-20.712.069-31.069.069H26.716l-.265-.613A119.663,119.663,0,0,1,59.563,12.308,107.473,107.473,0,0,1,98.944.57c37.871-3.474,70.185,8.951,97.035,36.66-.092.263-.183.526-.275.789" transform="translate(7.825 0)" fill="#228b22"/>
  <path id="Path_16" data-name="Path 16" d="M168.834,70.455c8.476,0,16.628-.049,24.777.083a3.006,3.006,0,0,1,2.155,1.827,118.023,118.023,0,0,1,3.409,35.273A121.59,121.59,0,0,1,162.4,188.961c-.732-2.2-1.442-4.206-2.072-6.241-2-6.474-3.906-12.98-6.01-19.42a4.675,4.675,0,0,1,.825-4.754,93.64,93.64,0,0,0,17.427-41.756,94.565,94.565,0,0,0-3.035-43.8c-.235-.739-.416-1.5-.7-2.531" transform="translate(38.798 20.839)" fill="#228b22"/>
  <path id="Path_17" data-name="Path 17" d="M36.861,188.786a108.072,108.072,0,0,1-17.137-20.729A118.564,118.564,0,0,1,1.182,118.325C-.841,102.853-.421,87.387,3.643,72.19c.183-.683,1.123-1.652,1.723-1.66,8.307-.11,16.616-.074,24.911-.074-1.112,4.8-2.457,9.423-3.225,14.139-3.181,19.5-1.424,38.5,7.025,56.516,2.866,6.112,6.835,11.7,10.159,17.613a5.851,5.851,0,0,1,.815,3.948c-2.443,8.556-5.113,17.048-7.72,25.557-.043.139-.2.242-.469.557" transform="translate(0 20.84)" fill="#228b22"/>
</svg>
